<?xml version="1.0" ?>
<!-- Uploaded to: SVG Repo, www.svgrepo.com, Generator: SVG Repo Mixer Tools -->
<svg width="800px" height="800px" viewBox="0 0 64 64" xmlns="http://www.w3.org/2000/svg">
<defs>
<style>.cls-1{fill:#e0e9ee;}.cls-2{fill:#d0e1e8;}.cls-3{fill:#748a95;}.cls-4{fill:#f0f4f7;}.cls-5{fill:#617880;}</style>
</defs>
<g id="Grim">
<path class="cls-1" d="M20.21,13.44C5.38,15.5,7.27,27.45,9.49,34l7.89-7.71,6.88-4.43-.85-7.5Z" id="path70796-3"/>
<path class="cls-2" d="M22.5,21.14C12.06,23.56,9.92,31.22,9.49,34c.18.51.35,1,.52,1.42.62,1.6,1.34,1.43,1.85-.2,1-3.17,3.62-8,10.62-10.26l2.08-.43-.3-2.67Z" id="path70966-5"/>
<path class="cls-3" d="M23,18.23l-4-6.92A2.2,2.2,0,0,1,22.79,9.1l2.54,4.39,5.13,4Z" id="path70711-9"/>
<path class="cls-4" d="M54.17,45c-1.18-1.86-3.85-7.37-3.85-12.41V21.92a13.92,13.92,0,1,0-27.83,0v10.7c0,6.64-1.69,9.84-3.32,11.39a6.68,6.68,0,0,0-1.93,5.55c.69,3.09,2.11,6.44,8.65,6.44a14.88,14.88,0,0,0,1.68-.1l16.57-5Z" id="rect205218-2-4"/>
<path class="cls-2" d="M45.48,40A9,9,0,0,0,37,47c-1.35,6.94-9.09,8.84-9.4,8.91a11.88,11.88,0,0,0,2.23-.45c6-1.88,7.24-1.88,13.2,0a13,13,0,0,0,3.92.55c5.35,0,7.76-2.75,8.83-5.44.86-2.15-.84-4.51-2.31-6.57A9.61,9.61,0,0,0,45.48,40Z" id="path232721-10-6"/>
<path class="cls-5" d="M42.35,34.36a5.27,5.27,0,0,1-3.29,5,7.39,7.39,0,0,1-5.32,0,5.3,5.3,0,0,1-3.29-5Z" id="path65157-3"/>
<path class="cls-3" d="M36.4,15.51a19.15,19.15,0,0,0-9,2.2h0a6.47,6.47,0,0,0-1.23,4.11,10.2,10.2,0,0,0,2.18,6.28A1.47,1.47,0,0,0,27.81,31l2.64.71v2.67a1.9,1.9,0,0,0,1.91,1.91h8.09a1.9,1.9,0,0,0,1.9-1.91V31.69L45,31a1.47,1.47,0,0,0-.55-2.88,10.2,10.2,0,0,0,2.15-6.28,6.41,6.41,0,0,0-1.23-4.11A19.32,19.32,0,0,0,36.4,15.51Z" id="path81748-6"/>
<path class="cls-2" d="M42,22.16l-3.34.19a1.07,1.07,0,0,0-1,.75,3,3,0,0,0,0,.43,2.74,2.74,0,1,0,5.47,0,2.52,2.52,0,0,0-.1-.73A1,1,0,0,0,42,22.16Z" id="path182529-9-2-91"/>
<path class="cls-2" d="M29.79,22.8a2.92,2.92,0,0,0-.1.73,2.74,2.74,0,1,0,5.48,0,3,3,0,0,0,0-.43,1.07,1.07,0,0,0-1-.75l-3.34-.19A1,1,0,0,0,29.79,22.8Z" id="path172191-2-1-27"/>
<path class="cls-2" d="M37.45,28.46l.72,1.44A1.45,1.45,0,0,1,36.88,32h-1a1.45,1.45,0,0,1-1.3-2.1l.72-1.44A1.17,1.17,0,0,1,37.45,28.46Z" id="rect174019-2-0-0"/>
<path class="cls-2" d="M36.4,14.51a19.66,19.66,0,0,0-11.84,3.85,1,1,0,0,0,1.29,1.53h0A17.35,17.35,0,0,1,36.4,16.51,17.37,17.37,0,0,1,47,19.89a1,1,0,0,0,1.41-.12h0a1,1,0,0,0-.12-1.41A19.67,19.67,0,0,0,36.4,14.51Z" id="path170798-80"/>
</g>
</svg>